:SAMPLES-PER-SECOND 30
:FULLY-SPECIFIED
:DEGREES
154
root  -2.0965 37.2082 13.7442 178.412 74.1529 -177.415
RightUpLeg  -30.9751 -17.7619 5.32259
RightLeg  29.5652 -3.3605 -2.30805
RightFoot  4.56602 1.228 -8.5898
RightToes  0.00048216 0.542163 -0.142577
Spine  21.8869 2.41318 18.5116
Spine1  12.4587 10.7096 -12.8108
HEad  0.424026 -10.0621 -1.14351
LeftShoulder1  8.89619 -13.4558 -45.7393
LeftArm  -16.992 32.9228 -25.9171
LeftForeArm  6.2016 -67.8014 -29.0157
LeftHand  -0.25398 0.0180481 5.50724
RightShoulder  6.40268 12.0646 35.1554
RightArm  52.6 35.5192 67.4456
RightForeArm  -40.5503 23.2575 7.06446
RightHand  -0.00114431 -6.29096 -5.04662
LeftUpLeg  7.49178 -2.72906 9.16918
LeftLeg  50.3795 2.05607 3.03524
LeftFoot  8.31947 1.72497 -10.2264
LeftToes  1.06246e-005 4.65856e-005 -8.18501e-006
155
root  -0.397988 37.0358 13.9301 -175.89 72.8626 -171.264
RightUpLeg  -30.2606 -17.7943 7.32323
RightLeg  34.4793 -4.68443 -3.70671
RightFoot  -0.46439 0.957843 -10.0162
RightToes  0.00048216 0.542163 -0.142577
Spine  23.1104 1.84763 19.8103
Spine1  12.7993 10.3601 -10.7705
HEad  -0.268108 -9.60676 -0.900247
LeftShoulder1  8.97202 -13.6894 -45.4937
LeftArm  -16.8743 31.3469 -26.5592
LeftForeArm  5.18323 -67.0763 -27.9198
LeftHand  -0.25398 0.0180481 5.50724
RightShoulder  6.36808 12.1515 34.7123
RightArm  51.5117 36.3964 67.2682
RightForeArm  -40.3853 23.2082 7.06541
RightHand  -0.00488006 -6.11002 -5.4492
LeftUpLeg  -0.761558 -6.67521 9.78621
LeftLeg  62.2246 1.74964 4.15718
LeftFoot  14.7609 1.15324 -5.22402
LeftToes  1.06246e-005 4.65856e-005 -8.18501e-006
156
root  1.45055 37.2578 14.159 -174.496 72.2749 -169.685
RightUpLeg  -27.6059 -18.4235 8.25883
RightLeg  35.9982 -4.89032 -4.08438
RightFoot  -4.65364 0.563678 -10.1087
RightToes  0.00048216 0.542163 -0.142577
Spine  23.9873 2.07818 19.4172
Spine1  12.8771 10.399 -9.68268
HEad  -0.662979 -9.59261 0.0698773
LeftShoulder1  9.05635 -13.8976 -45.3673
LeftArm  -15.6616 29.1621 -26.0515
LeftForeArm  4.99292 -66.5706 -27.1389
LeftHand  -0.25398 0.0180481 5.50724
RightShoulder  6.38584 12.1831 34.743
RightArm  49.0718 37.5733 66.7933
RightForeArm  -38.6702 22.3525 7.35261
RightHand  -0.0139336 -5.93938 -5.08732
LeftUpLeg  -8.07317 -8.79687 9.64006
LeftLeg  69.2365 1.09243 4.01182
LeftFoot  13.4216 0.742604 -3.77025
LeftToes  1.06246e-005 4.65856e-005 -8.18501e-006
157
root  3.36288 37.7005 14.3751 -174.527 72.5514 -169.899
RightUpLeg  -24.2052 -19.1613 8.5112
RightLeg  35.5246 -4.2491 -3.5345
RightFoot  -7.21845 0.298469 -9.61757
RightToes  0.00048216 0.542163 -0.142577
Spine  24.4642 2.77392 18.4175
Spine1  12.6688 10.8536 -9.74612
HEad  -0.420813 -9.55984 0.798435
LeftShoulder1  9.11271 -14.0423 -45.27
LeftArm  -14.5291 26.873 -25.2474
LeftForeArm  4.85358 -66.0443 -26.3618
LeftHand  -0.25398 0.0180481 5.50724
RightShoulder  6.45145 12.2866 34.8892
RightArm  44.941 38.7619 66.4454
RightForeArm  -34.9361 20.4396 8.28167
RightHand  -0.0296237 -5.5736 -4.26881
LeftUpLeg  -14.3859 -9.26015 9.0673
LeftLeg  71.2518 0.789535 3.52849
LeftFoot  9.01765 0.715319 -4.29704
LeftToes  1.06246e-005 4.65856e-005 -8.18501e-006
158
root  5.26891 38.1097 14.5444 -174.172 73.1182 -169.915
RightUpLeg  -20.5507 -20.0689 8.70253
RightLeg  34.2549 -3.38779 -2.75591
RightFoot  -9.59147 0.079215 -9.44486
RightToes  0.00048216 0.542163 -0.142577
Spine  24.4556 3.57455 17.5451
Spine1  12.3586 11.4191 -10.1687
HEad  0.355605 -9.27521 0.815471
LeftShoulder1  9.11632 -14.1774 -44.9284
LeftArm  -14.2534 24.9992 -25.1311
LeftForeArm  4.44667 -65.4649 -25.5828
LeftHand  -0.25398 0.0180481 5.50724
RightShoulder  6.50716 12.4747 34.7578
RightArm  40.4595 39.7588 66.2348
RightForeArm  -30.8461 18.3622 9.47796
RightHand  -0.0429092 -5.11381 -3.66495
LeftUpLeg  -19.7883 -9.14281 8.23798
LeftLeg  69.4553 0.750396 3.05157
LeftFoot  5.38552 0.555469 -3.96588
LeftToes  1.06246e-005 4.65856e-005 -8.18501e-006
159
root  7.19605 38.4857 14.6881 -174.253 73.7339 -170.28
RightUpLeg  -16.1563 -21.1586 8.58043
RightLeg  31.9548 -2.49436 -1.94533
RightFoot  -11.9613 -0.132103 -9.543
RightToes  0.00048216 0.542163 -0.142577
Spine  24.1356 4.44812 16.4818
Spine1  12.0883 11.963 -10.7195
HEad  1.18252 -8.76467 0.443454
LeftShoulder1  9.09103 -14.2923 -44.4955
LeftArm  -14.4781 23.589 -25.4035
LeftForeArm  4.13757 -65.0412 -25.0421
LeftHand  -0.25398 0.0180481 5.50724
RightShoulder  6.54567 12.6473 34.5623
RightArm  37.7837 40.4808 65.9624
RightForeArm  -28.5665 17.1838 10.1369
RightHand  -0.0476394 -4.88269 -3.37713
LeftUpLeg  -23.9052 -8.68788 6.97912
LeftLeg  64.4979 0.945707 2.82059
LeftFoot  2.64822 0.26588 -2.30394
LeftToes  1.06246e-005 4.65856e-005 -8.18501e-006
160
root  9.10077 38.7936 14.7868 -174.537 74.2277 -170.708
RightUpLeg  -11.5175 -22.3037 8.11295
RightLeg  29.3372 -1.39231 -1.11101
RightFoot  -13.6979 -0.286588 -9.4282
RightToes  0.00048216 0.542163 -0.142577
Spine  23.6955 5.19629 15.6245
Spine1  11.8594 12.4425 -11.4458
HEad  1.79601 -8.17386 0.0751754
LeftShoulder1  9.07136 -14.317 -44.3302
LeftArm  -14.6418 22.4714 -25.3755
LeftForeArm  4.21732 -64.9313 -24.8867
LeftHand  -0.25398 0.0180481 5.50724
RightShoulder  6.57084 12.7346 34.5
RightArm  36.6981 40.9471 65.6514
RightForeArm  -27.6697 16.9134 10.2269
RightHand  -0.0456486 -4.92786 -3.06562
LeftUpLeg  -26.5378 -7.32037 5.60226
LeftLeg  56.4833 1.29338 2.61104
LeftFoot  -0.00524211 0.229651 -2.36425
LeftToes  1.06246e-005 4.65856e-005 -8.18501e-006
161
root  10.9883 38.9496 14.815 -174.037 74.3958 -170.43
RightUpLeg  -7.31244 -23.3261 7.64826
RightLeg  27.3072 -0.378233 -0.410281
RightFoot  -15.2055 -0.416516 -9.27231
RightToes  0.00048216 0.542163 -0.142577
Spine  22.952 5.72541 15.3338
Spine1  11.584 12.7632 -12.2186
HEad  2.39021 -7.59486 -0.23664
LeftShoulder1  9.05638 -14.246 -44.4391
LeftArm  -14.7077 21.7089 -25.0792
LeftForeArm  4.67786 -65.15 -25.123
LeftHand  -0.25398 0.0180481 5.50724
RightShoulder  6.5436 12.7369 34.3283
RightArm  36.3547 41.0857 65.4586
RightForeArm  -27.5381 17.132 10.0261
RightHand  -0.0421829 -5.06703 -2.73283
LeftUpLeg  -27.755 -4.37788 4.05805
LeftLeg  45.5719 1.6145 2.15781
LeftFoot  -1.90621 0.362207 -4.23442
LeftToes  1.06246e-005 4.65856e-005 -8.18501e-006
